# AST/ASF file generated using VICON BodyLanguage
# -----------------------------------------------
:version 1.10
:name VICON
:units
  mass 1.0
  length 0.45
  angle deg
:documentation
   .ast/.asf automatically generated from VICON data using
   VICON BodyBuilder and BodyLanguage model FoxedUp or BRILLIANT.MOD
:root
   order TX TY TZ RX RY RZ
   axis XYZ
   position 0 0 0  
   orientation 0 0 0 
:bonedata
  begin
     id 1 
     name lhipjoint
     direction 0.584852 -0.759097 0.285867 
     length 2.43633 
     axis 0 0 0  XYZ
  end
  begin
     id 2 
     name lfemur
     direction 0.34202 -0.939693 0  
     length 7.14704  
     axis 0 0 20  XYZ
    dof rx ry rz
    limits (-160.0 20.0)
           (-70.0 70.0)
           (-60.0 70.0)
  end
  begin
     id 3 
     name ltibia
     direction 0.342022 -0.939692 0   
     length 7.68483   
     axis 0 0 20   XYZ
    dof rx
    limits (-10.0 170.0)
  end
  begin
     id 4 
     name lfoot
     direction 0.0999605 -0.274639 0.956337   
     length 2.40452   
     axis -90 7.62852e-016 20   XYZ
    dof rx rz
    limits (-45.0 90.0)
           (-70.0 20.0)
  end
  begin
     id 5 
     name ltoes
     direction 1.53468e-011 -4.21881e-011 1   
     length 1.19837   
     axis -90 7.62852e-016 20   XYZ
    dof rx
    limits (-90.0 20.0)
  end
  begin
     id 6 
     name rhipjoint
     direction -0.569886 -0.769002 0.289597   
     length 2.40495  
     axis 0 0 0  XYZ 
  end
  begin
     id 7 
     name rfemur
     direction -0.34202 -0.939693 0   
     length 7.45086   
     axis 0 0 -20   XYZ
    dof rx ry rz
    limits (-160.0 20.0)
           (-70.0 70.0)
           (-70.0 60.0)
  end
  begin
     id 8 
     name rtibia
     direction -0.34202 -0.939693 0   
     length 7.76831   
     axis 0 0 -20   XYZ
    dof rx
    limits (-10.0 170.0)
 end
 begin
     id 9 
     name rfoot
     direction -0.0798572 -0.219406 0.97236   
     length 2.35911  
     axis -90 -7.62852e-016 -20   XYZ
    dof rx rz
    limits (-45.0 90.0)
           (-20.0 70.0)
  end
  begin
     id 10 
     name rtoes
     direction -1.53469e-011 -4.21728e-011 1   
     length 1.18261   
     axis -90 -7.62852e-016 -20   XYZ
    dof rx
    limits (-90.0 20.0)
  end
  begin
     id 11 
     name lowerback
     direction 0.0242088 0.999437 0.0232389   
     length 2.1561   
     axis 0 0 0   XYZ
    dof rx ry rz
    limits (-20.0 45.0)
           (-30.0 30.0)
           (-30.0 30.0)
  end
  begin
     id 12 
     name upperback
     direction -0.0356893 0.999013 -0.0264323   
     length 2.14431   
     axis 0 0 0   XYZ
    dof rx ry rz
    limits (-20.0 45.0)
           (-30.0 30.0)
           (-30.0 30.0)
  end
  begin
     id 13 
     name thorax
     direction -0.0472163 0.998194 -0.0371284   
     length 2.16169   
     axis 0 0 0   XYZ
    dof rx ry rz
    limits (-20.0 45.0)
           (-30.0 30.0)
           (-30.0 30.0)
  end
  begin
     id 14 
     name lowerneck
     direction 0.00863244 0.999921 0.00911972   
     length 1.58651   
     axis 0 0 0   XYZ
    dof rx ry rz
    limits (-20.0 45.0)
           (-30.0 30.0)
           (-30.0 30.0)
  end
  begin
     id 15 
     name upperneck
     direction 0.149523 0.979068 -0.138086   
     length 1.57486   
     axis 0 0 0   XYZ
    dof rx ry rz
    limits (-20.0 45.0)
           (-30.0 30.0)
           (-30.0 30.0)
  end
  begin
     id 16
     name head
     direction 0.0445219 0.997708 -0.0509576  
     length 1.6019  
     axis 0 0 0   XYZ
    dof rx ry rz
    limits (-20.0 45.0)
           (-30.0 30.0)
           (-30.0 30.0)
  end
  begin
     id 17 
     name lclavicle
     direction 0.911271 0.381667 -0.154644  
     length 3.80848  
     axis 0 0 0   XYZ
    dof ry rz
    limits (-20.0 10.0)
           (0.0 20.0)
  end
  begin
     id 18 
     name lhumerus
     direction 1 -4.49003e-011 2.1308e-027   
     length 5.19069   
     axis 180 -30 -90   XYZ
    dof rx ry rz
    limits (-60.0 90.0)
           (-90.0 90.0)
           (-90.0 90.0)
  end
  begin
     id 19
     name lradius
     direction 1 -4.48914e-011 4.01554e-027   
     length 3.30016   
     axis 180 -30 -90   XYZ
    dof rx
    limits (-10.0 170.0)
  end
  begin
     id 20
     name lwrist
     direction 1 -4.49003e-011 1.1934e-026   
     length 1.65008   
     axis -8.46377e-015 90 90   XYZ
    dof ry
    limits (-180.0 0.0)
 end
  begin
     id 21 
     name lhand
     direction 1 -4.49034e-011 2.38659e-026   
     length 0.707698   
     axis -1.52313e-014 90 90   XYZ
    dof rx rz
    limits (-90.0 90.0)
           (-45.0 45.0)
  end
  begin
     id 22 
     name lfingers
     direction 1 -4.48691e-011 4.77775e-026   
     length 0.570564   
     axis -3.04623e-014 90 90   XYZ
    dof rx
    limits (0.0 90.0)
  end
  begin
     id 23
     name lthumb
     direction 0.707107 -6.34832e-011 0.707107   
     length 0.819219   
     axis -90 45 -1.62303e-014   XYZ
    dof rx rz
    limits (-45.0 45.0)
           (-45.0 45.0)
  end
  begin
     id 24 
     name rclavicle
     direction -0.815579 0.573708 -0.0754329   
     length 3.54371  
     axis 0 0 0   XYZ 
    dof ry rz
    limits (-10.0 20.0)
           (-20.0 0.0)
  end
  begin
     id 25 
     name rhumerus
     direction -1 -4.48956e-011 3.05351e-028  
     length 5.23924   
     axis 180 30 90   XYZ
    dof rx ry rz
    limits (-90.0 60.0)
           (-90.0 90.0)
           (-90.0 90.0)
  end
  begin
     id 26 
     name rradius
     direction -1 -4.49013e-011 3.53849e-027   
     length 3.32953   
     axis 180 30 90   XYZ
    dof rx
    limits (-10.0 170.0)
  end
  begin
     id 27 
     name rwrist
     direction -1 -4.48901e-011 1.19374e-026   
     length 1.66477   
     axis -8.46377e-015 -90 -90   XYZ
    dof ry
    limits (-180.0 0.0)
  end
  begin
     id 28
     name rhand
     direction -1 -4.48877e-011 2.38764e-026   
     length 0.607414   
     axis -1.52313e-014 -90 -90   XYZ
    dof rx rz
    limits (-90.0 90.0)
           (-45.0 45.0)
  end
  begin
     id 29
     name rfingers
     direction -1 -4.48882e-011 4.77521e-026   
     length 0.489712   
     axis -3.04623e-014 -90 -90   XYZ
    dof rx
    limits (0.0 90.0)
  end
  begin
     id 30
     name rthumb
     direction -0.707107 -6.34974e-011 0.707107   
     length 0.703132   
     axis -90 -45 1.62303e-014   XYZ
    dof rx rz
    limits (-45.0 45.0)
           (-45.0 45.0)
  end
:hierarchy
  begin
    root lhipjoint rhipjoint lowerback
    lhipjoint lfemur
    lfemur ltibia
    ltibia lfoot
    lfoot ltoes
    rhipjoint rfemur
    rfemur rtibia
    rtibia rfoot
    rfoot rtoes
    lowerback upperback
    upperback thorax
    thorax lowerneck lclavicle rclavicle
    lowerneck upperneck
    upperneck head
    lclavicle lhumerus
    lhumerus lradius
    lradius lwrist
    lwrist lhand lthumb
    lhand lfingers
    rclavicle rhumerus
    rhumerus rradius
    rradius rwrist
    rwrist rhand rthumb
    rhand rfingers
  end

#!OML:ASF E:\VariousWalksJay\Project 1\Capture day 1\Session 1\Actor2.ASF
:FULLY-SPECIFIED
:DEGREES
311
root 25.595 15.164 -19.1385 14.2727 -42.7593 2.26485
lowerback 17.1731 -6.51076 5.46299
upperback 13.1043 -8.18761 -2.94005
thorax 3.43482 -3.79845 -4.97389
lowerneck 3.77582 3.50629 4.74742
upperneck -7.66296 4.75661 -3.595
head -2.91874 2.3593 -2.17272
rclavicle 1.11319e-014 3.97569e-014
rhumerus -61.6329 23.358 -89.1674
rradius 95.0901
rwrist 18.4856
rhand -45.4252 11.5285
rfingers 7.12502
rthumb -18.1928 -17.6407
lclavicle 1.11319e-014 3.97569e-014
lhumerus 13.5188 -47.4713 68.4212
lradius 91.9469
lwrist 50.0477
lhand -45.8555 8.37806
lfingers 7.12502
lthumb -18.6067 37.5082
rfemur -68.1386 1.09175 30.6239
rtibia 55.8502
rfoot -11.7884 -13.0569
rtoes 1.62517
lfemur -13.9864 27.115 -34.747
ltibia 55.4411
lfoot -28.3458 -14.2404
ltoes -27.425
312
root 25.5544 15.1387 -19.0515 14.5587 -42.9789 2.11099
lowerback 17.3003 -6.46486 5.53079
upperback 13.1596 -8.11796 -2.91219
thorax 3.43744 -3.76083 -4.98531
lowerneck 3.80744 3.49705 4.7796
upperneck -7.88368 4.73819 -3.68955
head -2.99831 2.35065 -2.21665
rclavicle 4.45278e-014 -5.725e-014
rhumerus -61.3743 23.3925 -89.0675
rradius 95.3724
rwrist 18.4883
rhand -45.3381 11.4023
rfingers 7.12502
rthumb -18.109 -17.7747
lclavicle 4.45278e-014 -5.725e-014
lhumerus 13.7851 -47.2054 68.1812
lradius 91.9863
lwrist 49.9821
lhand -45.8716 8.41689
lfingers 7.12502
lthumb -18.6222 37.5455
rfemur -68.5025 1.42023 30.5463
rtibia 56.7426
rfoot -11.9786 -13.1771
rtoes 2.30643
lfemur -13.749 27.0039 -34.7794
ltibia 55.2235
lfoot -28.3497 -14.1215
ltoes -27.6353
313
root 25.5141 15.1146 -18.9645 14.8684 -43.1616 1.91237
lowerback 17.4235 -6.44765 5.63453
upperback 13.2106 -8.08055 -2.86909
thorax 3.43194 -3.73786 -4.9947
lowerneck 3.83231 3.50177 4.76913
upperneck -8.06931 4.73629 -3.77404
head -3.06507 2.35156 -2.24901
rclavicle 3.73715e-014 -2.78299e-014
rhumerus -61.1035 23.5192 -88.9796
rradius 95.6894
rwrist 18.474
rhand -45.1977 11.2089
rfingers 7.12502
rthumb -17.9739 -17.9806
lclavicle 3.73715e-014 -2.78299e-014
lhumerus 14.0519 -46.8679 67.9365
lradius 92.0164
lwrist 49.9322
lhand -45.9223 8.42423
lfingers 7.12502
lthumb -18.671 37.5482
rfemur -68.8344 1.71916 30.5067
rtibia 57.598
rfoot -12.2104 -13.2982
rtoes 2.94137
lfemur -13.5134 26.8799 -34.7747
ltibia 55.02
lfoot -28.3446 -13.9623
ltoes -27.8684
314
root 25.4749 15.0916 -18.877 15.1718 -43.2907 1.69126
lowerback 17.5634 -6.46139 5.78066
upperback 13.263 -8.07629 -2.8155
thorax 3.41258 -3.72954 -5.00862
lowerneck 3.83763 3.51106 4.74551
upperneck -8.21651 4.73819 -3.86813
head -3.11499 2.35551 -2.2807
rclavicle 7.95139e-015 -7.71285e-014
rhumerus -60.8165 23.7204 -88.8996
rradius 96.0455
rwrist 18.4442
rhand -45.0024 10.9743
rfingers 7.12502
rthumb -17.786 -18.2323
lclavicle 7.95139e-015 -7.71285e-014
lhumerus 14.405 -46.4357 67.5738
lradius 92.072
lwrist 50.0064
lhand -45.9376 8.51407
lfingers 7.12502
lthumb -18.6856 37.6366
rfemur -69.1269 1.96333 30.4891
rtibia 58.4228
rfoot -12.4844 -13.4131
rtoes 3.53573
lfemur -13.2654 26.7156 -34.7418
ltibia 54.8376
lfoot -28.3182 -13.7557
ltoes -28.1288
315
root 25.437 15.0699 -18.7886 15.4416 -43.3704 1.47459
lowerback 17.725 -6.51087 5.96156
upperback 13.3194 -8.11186 -2.76236
thorax 3.37826 -3.73933 -5.03273
lowerneck 3.83337 3.52808 4.70183
upperneck -8.33451 4.74841 -3.96787
head -3.153 2.36479 -2.30986
rclavicle -2.70347e-014 -4.21423e-014
rhumerus -60.5118 23.9996 -88.8352
rradius 96.4358
rwrist 18.4014
rhand -44.763 10.6805
rfingers 7.12502
rthumb -17.5556 -18.5468
lclavicle -2.70347e-014 -4.21423e-014
lhumerus 14.8124 -45.9198 67.1274
lradius 92.1424
lwrist 50.1999
lhand -45.9423 8.61823
lfingers 7.12502
lthumb -18.6902 37.7403
rfemur -69.3765 2.14329 30.4752
rtibia 59.2273
rfoot -12.7991 -13.5136
rtoes 4.07165
lfemur -12.9938 26.5069 -34.6969
ltibia 54.6789
lfoot -28.2489 -13.5203
ltoes -28.3884
316
root 25.4007 15.0491 -18.7002 15.6729 -43.4084 1.28215
lowerback 17.9059 -6.58288 6.14548
upperback 13.3814 -8.17425 -2.70031
thorax 3.3383 -3.76278 -5.04225
lowerneck 3.80911 3.54772 4.64573
upperneck -8.42603 4.75871 -4.09072
head -3.17792 2.37563 -2.34318
rclavicle -2.3059e-014 -2.54444e-014
rhumerus -60.1772 24.341 -88.7624
rradius 96.8603
rwrist 18.3414
rhand -44.4803 10.3596
rfingers 7.12502
rthumb -17.2836 -18.8919
lclavicle -2.3059e-014 -2.54444e-014
lhumerus 15.2739 -45.317 66.6355
lradius 92.2231
lwrist 50.4973
lhand -45.9257 8.76541
lfingers 7.12502
lthumb -18.6743 37.889
rfemur -69.5972 2.27059 30.4464
rtibia 60.0152
rfoot -13.1517 -13.6055
rtoes 4.55376
lfemur -12.7233 26.2499 -34.6587
ltibia 54.5549
lfoot -28.1024 -13.2833
ltoes -28.5946
317
root 25.3658 15.0294 -18.6117 15.8543 -43.4294 1.13076
lowerback 18.1158 -6.66777 6.31471
upperback 13.4433 -8.25222 -2.63819
thorax 3.2834 -3.79553 -5.03725
lowerneck 3.77235 3.56896 4.59319
upperneck -8.48997 4.76886 -4.24158
head -3.19038 2.38761 -2.38536
rclavicle 4.05521e-014 -4.29375e-014
rhumerus -59.8261 24.7305 -88.6907
rradius 97.3165
rwrist 18.2709
rhand -44.1768 9.98914
rfingers 7.12502
rthumb -16.9914 -19.2877
lclavicle 4.05521e-014 -4.29375e-014
lhumerus 15.8023 -44.6305 66.0389
lradius 92.334
lwrist 50.9311
lhand -45.9046 8.91057
lfingers 7.12502
lthumb -18.6539 38.0362
rfemur -69.7878 2.36271 30.3858
rtibia 60.7877
rfoot -13.5385 -13.685
rtoes 4.99661
lfemur -12.4612 25.9627 -34.6449
ltibia 54.474
lfoot -27.8688 -13.05
ltoes -28.7671
318
root 25.3325 15.0109 -18.5233 15.9765 -43.4344 1.03056
lowerback 18.3534 -6.76133 6.46965
upperback 13.5118 -8.34077 -2.58071
thorax 3.22179 -3.83452 -5.02438
lowerneck 3.71151 3.58884 4.55321
upperneck -8.52545 4.77537 -4.4178
head -3.18791 2.39842 -2.43661
rclavicle 1.03368e-013 -2.06736e-014
rhumerus -59.4486 25.1404 -88.6187
rradius 97.8012
rwrist 18.1941
rhand -43.8584 9.58887
rfingers 7.12502
rthumb -16.6849 -19.7141
lclavicle 1.03368e-013 -2.06736e-014
lhumerus 16.3841 -43.8875 65.3775
lradius 92.4535
lwrist 51.4418
lhand -45.9065 9.03797
lfingers 7.12502
lthumb -18.6557 38.1634
rfemur -69.9442 2.41902 30.2869
rtibia 61.5408
rfoot -13.954 -13.751
rtoes 5.38727
lfemur -12.2177 25.643 -34.6582
ltibia 54.4532
lfoot -27.5313 -12.8328
ltoes -28.9068
319
root 25.2998 14.9936 -18.4351 16.0693 -43.4778 0.95372
lowerback 18.6104 -6.83482 6.5902
upperback 13.5851 -8.40668 -2.5224
thorax 3.16305 -3.86454 -4.99417
lowerneck 3.63023 3.604 4.52239
upperneck -8.53583 4.7739 -4.61662
head -3.17274 2.40578 -2.4955
rclavicle -7.63333e-014 6.20208e-014
rhumerus -59.0449 25.5587 -88.5389
rradius 98.3089
rwrist 18.1104
rhand -43.5337 9.14868
rfingers 7.12502
rthumb -16.3723 -20.1803
lclavicle -7.63333e-014 6.20208e-014
lhumerus 16.9787 -43.1016 64.7529
lradius 92.553
lwrist 51.9384
lhand -45.8814 9.19361
lfingers 7.12502
lthumb -18.6316 38.3213
rfemur -70.0641 2.49795 30.1602
rtibia 62.2652
rfoot -14.3906 -13.8031
rtoes 5.73682
lfemur -12.0197 25.3453 -34.6937
ltibia 54.5083
lfoot -27.0765 -12.6583
ltoes -28.9577
320
root 25.2677 14.9778 -18.3484 16.1494 -43.5502 0.89831
lowerback 18.8781 -6.88657 6.67304
upperback 13.6594 -8.44869 -2.45944
thorax 3.1085 -3.88521 -4.94186
lowerneck 3.52776 3.61399 4.50456
upperneck -8.51902 4.76467 -4.83382
head -3.14405 2.40941 -2.56122
rclavicle -4.05521e-014 7.95139e-016
rhumerus -58.6122 25.9751 -88.4539
rradius 98.8323
rwrist 18.0199
rhand -43.2105 8.6888
rfingers 7.12502
rthumb -16.0611 -20.6656
lclavicle -4.05521e-014 7.95139e-016
lhumerus 17.5271 -42.3351 64.3091
lradius 92.5634
lwrist 52.2789
lhand -45.8793 9.3059
lfingers 7.12502
lthumb -18.6296 38.4338
rfemur -70.1626 2.59983 30.011
rtibia 62.9518
rfoot -14.8365 -13.8484
rtoes 6.03229
lfemur -11.9001 25.0648 -34.7457
ltibia 54.6591
lfoot -26.4839 -12.5459
ltoes -28.8909
321
root 25.2359 14.9637 -18.2633 16.2331 -43.6613 0.841334
lowerback 19.1554 -6.90961 6.72972
upperback 13.7383 -8.45715 -2.39035
thorax 3.06317 -3.89092 -4.87486
lowerneck 3.40586 3.6162 4.49318
upperneck -8.48343 4.74464 -5.05841
head -3.10565 2.40742 -2.62915
rclavicle -3.57812e-014 -3.97569e-015
rhumerus -58.1405 26.3769 -88.3615
rradius 99.3639
rwrist 17.919
rhand -42.8913 8.20927
rfingers 7.12502
rthumb -15.7537 -21.1696
lclavicle -3.57812e-014 -3.97569e-015
lhumerus 18.0629 -41.592 63.9963
lradius 92.4983
lwrist 52.4741
lhand -45.9073 9.36632
lfingers 7.12502
lthumb -18.6565 38.4917
rfemur -70.2331 2.73586 29.858
rtibia 63.5908
rfoot -15.2839 -13.885
rtoes 6.26997
lfemur -11.875 24.8192 -34.7952
ltibia 54.9268
lfoot -25.75 -12.4881
ltoes -28.8282
322
root 25.2043 14.9517 -18.1794 16.3191 -43.8048 0.764802
lowerback 19.4472 -6.90061 6.79855
upperback 13.8263 -8.42267 -2.32741
thorax 3.02497 -3.87409 -4.8292
lowerneck 3.28852 3.59614 4.5215
upperneck -8.44102 4.6976 -5.28431
head -3.0667 2.39052 -2.70412
rclavicle 2.22639e-014 4.13472e-014
rhumerus -57.6408 26.7215 -88.2859
rradius 99.9034
rwrist 17.8257
rhand -42.5802 7.66318
rfingers 7.12502
rthumb -15.454 -21.7391
lclavicle 2.22639e-014 4.13472e-014
lhumerus 18.6228 -40.9139 63.7746
lradius 92.356
lwrist 52.538
lhand -45.9249 9.40065
lfingers 7.12502
lthumb -18.6735 38.5244
rfemur -70.2563 2.89912 29.7171
rtibia 64.176
rfoot -15.7299 -13.9117
rtoes 6.44579
lfemur -11.9327 24.612 -34.8166
ltibia 55.3278
lfoot -24.8618 -12.4962
ltoes -28.7262
323
root 25.1729 14.9417 -18.0986 16.4404 -43.953 0.6725
lowerback 19.7264 -6.87826 6.86433
upperback 13.9112 -8.37198 -2.25762
thorax 2.99371 -3.84944 -4.77935
lowerneck 3.19029 3.56815 4.54306
upperneck -8.40401 4.64119 -5.49809
head -3.03434 2.36865 -2.77458
rclavicle -1.43125e-013 7.4743e-014
rhumerus -57.099 27.0641 -88.2217
rradius 100.435
rwrist 17.7306
rhand -42.271 7.09508
rfingers 7.12502
rthumb -15.1563 -22.3299
lclavicle -1.43125e-013 7.4743e-014
lhumerus 19.1492 -40.2801 63.7097
lradius 92.128
lwrist 52.4338
lhand -45.9205 9.43426
lfingers 7.12502
lthumb -18.6693 38.5584
rfemur -70.2783 3.07394 29.5951
rtibia 64.7057
rfoot -16.165 -13.936
rtoes 6.55875
lfemur -12.1262 24.4247 -34.8114
ltibia 55.882
lfoot -23.7963 -12.5796
ltoes -28.5478
324
root 25.1423 14.9337 -18.0209 16.5874 -44.0972 0.56342
lowerback 20.0029 -6.83916 6.93694
upperback 14.0003 -8.29914 -2.18174
thorax 2.9722 -3.81319 -4.73245
lowerneck 3.10985 3.52244 4.57979
upperneck -8.38107 4.56255 -5.70694
head -3.01152 2.33494 -2.84689
rclavicle 6.36111e-014 -2.14687e-014
rhumerus -56.5007 27.3814 -88.1595
rradius 100.957
rwrist 17.6371
rhand -41.9611 6.50821
rfingers 7.12502
rthumb -14.8577 -22.9391
lclavicle 6.36111e-014 -2.14687e-014
lhumerus 19.7684 -39.6427 63.5859
lradius 91.8789
lwrist 52.3431
lhand -45.895 9.49851
lfingers 7.12502
lthumb -18.6447 38.625
rfemur -70.2913 3.24685 29.4956
rtibia 65.1813
rfoot -16.5898 -13.9535
rtoes 6.6208
lfemur -12.452 24.2525 -34.7727
ltibia 56.5985
lfoot -22.5314 -12.7297
ltoes -28.3125
